<?xml version="1.0" encoding="UTF-8" standalone="no"?>
<svg
   height="128"
   width="128"
   version="1.1"
   id="svg7"
   sodipodi:docname="icon.svg"
   xml:space="preserve"
   inkscape:version="1.3 (0e150ed6c4, 2023-07-21)"
   xmlns:inkscape="http://www.inkscape.org/namespaces/inkscape"
   xmlns:sodipodi="http://sodipodi.sourceforge.net/DTD/sodipodi-0.dtd"
   xmlns="http://www.w3.org/2000/svg"
   xmlns:svg="http://www.w3.org/2000/svg"><defs
     id="defs7" /><sodipodi:namedview
     id="namedview7"
     pagecolor="#505050"
     bordercolor="#eeeeee"
     borderopacity="1"
     inkscape:showpageshadow="0"
     inkscape:pageopacity="0"
     inkscape:pagecheckerboard="0"
     inkscape:deskcolor="#505050"
     inkscape:zoom="4.8503106"
     inkscape:cx="45.461006"
     inkscape:cy="74.428224"
     inkscape:window-width="1920"
     inkscape:window-height="1017"
     inkscape:window-x="-8"
     inkscape:window-y="-8"
     inkscape:window-maximized="1"
     inkscape:current-layer="svg7" /><rect
     x="2"
     y="2"
     width="124"
     height="124"
     rx="14"
     fill="#363d52"
     stroke="#212532"
     stroke-width="4"
     id="rect1" /><rect
     style="fill:#ffffff;fill-opacity:1;stroke:none;stroke-width:8.00126;stroke-linecap:round;stroke-linejoin:round;paint-order:stroke fill markers"
     id="rect8"
     width="32.254509"
     height="6.2456884"
     x="-20.856306"
     y="67.664673"
     transform="rotate(-45)" /><rect
     style="fill:#ffffff;fill-opacity:1;stroke:none;stroke-width:8.00126;stroke-linecap:round;stroke-linejoin:round;paint-order:stroke fill markers"
     id="rect8-0"
     width="32.254509"
     height="6.2456884"
     x="-113.34174"
     y="-23.632786"
     transform="matrix(-0.70710678,-0.70710678,-0.70710678,0.70710678,0,0)" /><rect
     style="fill:#ffffff;fill-opacity:1;stroke:none;stroke-width:8.00123;stroke-linecap:round;stroke-linejoin:round;paint-order:stroke fill markers"
     id="rect8-0-7"
     width="23.500513"
     height="4.5505853"
     x="-92.477669"
     y="-48.594398"
     transform="matrix(0.25881905,-0.96592583,-0.96592583,-0.25881905,0,0)" /><rect
     style="fill:#ffffff;fill-opacity:1;stroke:none;stroke-width:8.00123;stroke-linecap:round;stroke-linejoin:round;paint-order:stroke fill markers"
     id="rect8-0-7-5"
     width="23.500513"
     height="4.5505853"
     x="-107.24317"
     y="14.339795"
     transform="rotate(-105)" /><rect
     style="fill:#ffffff;fill-opacity:1;stroke:none;stroke-width:8.00123;stroke-linecap:round;stroke-linejoin:round;paint-order:stroke fill markers"
     id="rect8-0-7-5-7"
     width="23.500513"
     height="4.5505853"
     x="-124.37386"
     y="76.010529"
     transform="rotate(-105)" /><rect
     style="fill:#ffffff;fill-opacity:1;stroke:none;stroke-width:8.00123;stroke-linecap:round;stroke-linejoin:round;paint-order:stroke fill markers"
     id="rect8-0-7-5-77-5"
     width="23.500513"
     height="4.5505853"
     x="-74.848297"
     y="-110.42321"
     transform="matrix(0.25881905,-0.96592583,-0.96592583,-0.25881905,0,0)" /><g
     transform="matrix(0.05717365,0,0,0.05717365,34.761093,2.9139427)"
     id="g7"
     style="stroke-width:1.76654"><g
       fill="#ffffff"
       id="g4"
       style="stroke-width:1.76654"><path
         d="m 105,673 v 33 q 407,354 814,0 v -33 z"
         id="path1"
         style="stroke-width:1.76654" /><path
         fill="#478cbf"
         d="m 105,673 152,14 q 12,1 15,14 l 4,67 132,10 8,-61 q 2,-11 15,-15 h 162 q 13,4 15,15 l 8,61 132,-10 4,-67 q 3,-13 15,-14 L 919,673 V 427 q 30,-39 56,-81 -35,-59 -83,-108 -43,20 -82,47 -40,-37 -88,-64 7,-51 8,-102 -59,-28 -123,-42 -26,43 -46,89 -49,-7 -98,0 -20,-46 -46,-89 -64,14 -123,42 1,51 8,102 -48,27 -88,64 -39,-27 -82,-47 -48,49 -83,108 26,42 56,81 z m 0,33 v 39 c 0,276 813,276 813,0 v -39 l -134,12 -5,69 q -2,10 -14,13 l -162,11 q -12,0 -16,-11 L 577,735 H 447 l -10,65 q -4,11 -16,11 L 259,800 q -12,-3 -14,-13 l -5,-69 z"
         id="path2"
         style="stroke-width:1.76654" /><path
         d="m 483,600 c 3,34 55,34 58,0 v -86 c -3,-34 -55,-34 -58,0 z"
         id="path3"
         style="stroke-width:1.76654" /><circle
         cx="725"
         cy="526"
         r="90"
         id="circle3"
         style="stroke-width:1.76654" /><circle
         cx="299"
         cy="526"
         r="90"
         id="circle4"
         style="stroke-width:1.76654" /></g><g
       fill="#414042"
       id="g6"
       style="stroke-width:1.76654"><circle
         cx="307"
         cy="532"
         r="60"
         id="circle5"
         style="stroke-width:1.76654" /><circle
         cx="717"
         cy="532"
         r="60"
         id="circle6"
         style="stroke-width:1.76654" /></g></g><circle
     style="fill:#478cbf;fill-opacity:1;stroke:none;stroke-width:8.00125;stroke-linecap:round;stroke-linejoin:round;paint-order:stroke fill markers"
     id="path8"
     cx="96.947617"
     cy="71.143509"
     r="13.703873" /><circle
     style="fill:#478cbf;fill-opacity:1;stroke:none;stroke-width:8.00123;stroke-linecap:round;stroke-linejoin:round;paint-order:stroke fill markers"
     id="path8-3"
     cx="109.04624"
     cy="106.37939"
     r="9.0839739" /><circle
     style="fill:#478cbf;fill-opacity:1;stroke:none;stroke-width:8.00123;stroke-linecap:round;stroke-linejoin:round;paint-order:stroke fill markers"
     id="path8-3-0"
     cx="84.024345"
     cy="106.39902"
     r="9.0839739" /><circle
     style="fill:#478cbf;fill-opacity:1;stroke:none;stroke-width:8.00123;stroke-linecap:round;stroke-linejoin:round;paint-order:stroke fill markers"
     id="path8-3-0-3"
     cx="44.581768"
     cy="106.03889"
     r="9.0839739" /><circle
     style="fill:#478cbf;fill-opacity:1;stroke:none;stroke-width:8.00123;stroke-linecap:round;stroke-linejoin:round;paint-order:stroke fill markers"
     id="path8-3-0-3-9"
     cx="20.002008"
     cy="105.52293"
     r="9.0839739" /><circle
     style="fill:#478cbf;fill-opacity:1;stroke:none;stroke-width:8.00125;stroke-linecap:round;stroke-linejoin:round;paint-order:stroke fill markers"
     id="path8-6"
     cx="32.07172"
     cy="71.143509"
     r="13.703873" /></svg>
