<?xml version="1.0" encoding="UTF-8" standalone="no"?>
<!-- Created with Inkscape (http://www.inkscape.org/) -->

<svg
   width="500"
   height="200"
   viewBox="0 0 132.29165 52.91666"
   version="1.1"
   id="svg1"
   inkscape:version="1.3 (0e150ed6c4, 2023-07-21)"
   sodipodi:docname="0.svg"
   xml:space="preserve"
   xmlns:inkscape="http://www.inkscape.org/namespaces/inkscape"
   xmlns:sodipodi="http://sodipodi.sourceforge.net/DTD/sodipodi-0.dtd"
   xmlns="http://www.w3.org/2000/svg"
   xmlns:svg="http://www.w3.org/2000/svg"><sodipodi:namedview
     id="namedview1"
     pagecolor="#505050"
     bordercolor="#eeeeee"
     borderopacity="1"
     inkscape:showpageshadow="0"
     inkscape:pageopacity="0"
     inkscape:pagecheckerboard="0"
     inkscape:deskcolor="#505050"
     inkscape:document-units="px"
     inkscape:zoom="2.2123078"
     inkscape:cx="275.50416"
     inkscape:cy="169.50625"
     inkscape:window-width="1920"
     inkscape:window-height="1017"
     inkscape:window-x="-8"
     inkscape:window-y="-8"
     inkscape:window-maximized="1"
     inkscape:current-layer="layer1" /><defs
     id="defs1" /><g
     inkscape:label="Layer 1"
     inkscape:groupmode="layer"
     id="layer1"><rect
       style="fill:#292929;fill-opacity:1;stroke-width:2.117;stroke-linecap:round;stroke-linejoin:round;paint-order:stroke fill markers"
       id="rect1"
       width="132.29166"
       height="52.91666"
       x="0"
       y="0" /><path
       style="fill:#cc3d3d;fill-opacity:1;stroke-width:0.999998"
       d="m 61.226576,45.071035 c -2.460365,-2.190314 2.269769,-2.783472 3.017396,-3.993729 -1.130474,-0.457719 -3.051967,-1.706889 -4.050613,-1.017985 -1.359825,1.030886 -1.8365,3.092227 -3.46557,3.652963 -2.213137,0.08675 -4.42322,0.14819 -6.622704,0.438317 -1.012244,0.182572 -1.475009,-1.603539 -0.516672,-2.097996 0.807705,-0.838363 3.427382,-0.543382 3.463965,-1.231928 -1.414576,-0.557799 -4.872016,1.66956 -4.017665,-0.982641 0.775219,-1.973623 3.131547,-1.485174 4.830881,-1.561771 1.878063,-1.579579 -0.368751,-3.445446 -1.245797,-4.868005 -1.521419,-2.69704 -1.519413,-6.021893 -0.262485,-8.818018 0.802179,-1.252242 1.154571,-4.298541 -1.137661,-2.86618 -2.37253,0.532665 -5.052006,1.334275 -6.447255,3.471978 -0.413652,0.400229 -1.976191,-0.486195 -2.62814,0.09485 -1.556447,-1.390001 -2.547012,-4.582663 0.241634,-5.207211 1.874899,-1.690437 0.914906,-4.902437 3.012542,-6.490862 2.045499,-1.711362 2.721794,-4.7800493 5.423153,-5.7546418 -0.658364,0.4651144 -3.352635,3.8127368 -1.140647,2.3637468 0.894756,-0.6906239 3.135879,-1.9696078 3.586288,-1.6447755 -1.022659,0.3605708 -2.781687,3.3721645 -0.603916,1.7851055 1.374168,-0.653007 2.907861,-0.9693712 4.428389,-0.8999816 -1.305182,0.4903214 -2.825617,3.0111216 -0.369846,2.2133946 0.71861,0.02819 3.661127,0.281781 3.059411,0.645617 -2.788244,0.611626 -1.583527,3.505021 0.921916,2.988644 1.540871,0.306119 -0.32879,-1.157672 1.352629,-1.27838 2.155164,-0.302055 1.705102,-2.045362 0.406479,-3.158073 0.573139,-1.5747553 3.81481,-1.0467592 5.402965,-1.6069163 4.774019,-0.3386043 9.977198,-0.3671941 14.200312,2.2073093 1.535411,0.837532 5.030869,3.28529 1.272894,3.167499 -2.405247,0.507901 -4.818978,3.073468 -3.65469,5.648202 1.191121,2.190921 -3.706911,0.562997 -2.720654,3.373096 0.741147,1.313434 0.621627,2.276788 -0.995696,1.994823 -1.346403,0.07312 -3.591914,2.190818 -0.879715,1.934935 1.068488,0.09164 2.549335,-0.09155 1.284051,1.17355 -1.013737,1.872394 2.335828,1.860591 0.941896,3.640806 0.160833,1.675314 2.381368,2.138021 3.561852,2.888442 2.775186,-0.321592 2.552756,-3.927185 1.760435,-5.891792 -1.029798,-3.369786 -1.982313,-7.49755 0.438365,-10.526068 0.811104,-1.708247 4.890083,-2.296054 2.989246,-4.61756 1.075427,-1.710035 4.363149,-0.869613 6.211876,-0.476373 1.465528,1.672146 -0.911442,3.971182 -1.631398,5.651528 -1.677732,2.078346 -1.658427,-3.941381 -3.807125,-1.384524 -2.048447,2.341038 -2.022596,5.86991 -0.489415,8.47941 1.586852,3.025598 2.611141,6.790128 0.871864,9.983464 -1.390733,3.235895 -4.608641,5.675717 -8.199218,5.650529 -2.405739,0.216716 -4.806131,-0.188677 -7.193259,-0.290286 -0.850863,1.929298 -3.073522,1.953576 -4.954162,2.236866 -1.897804,0.137325 -3.777543,1.080902 -5.646136,0.980626 z m 2.099106,-23.341201 c 0.451074,-1.132595 -0.269779,-3.087295 -0.893202,-0.940035 -0.104708,0.395602 0.42279,1.584908 0.893202,0.940035 z m -0.368323,-3.545792 c 0.701444,-1.834489 -2.844861,-2.682424 -2.089961,-0.514931 0.496085,0.411766 1.478099,0.934723 2.089961,0.514931 z"
       id="path1" /></g></svg>
