<?xml version="1.0" encoding="UTF-8" standalone="no"?>
<!-- Created with Inkscape (http://www.inkscape.org/) -->

<svg
   width="500"
   height="200"
   viewBox="0 0 132.29165 52.91666"
   version="1.1"
   id="svg1"
   inkscape:version="1.3 (0e150ed6c4, 2023-07-21)"
   sodipodi:docname="attack-again.svg"
   xml:space="preserve"
   xmlns:inkscape="http://www.inkscape.org/namespaces/inkscape"
   xmlns:sodipodi="http://sodipodi.sourceforge.net/DTD/sodipodi-0.dtd"
   xmlns="http://www.w3.org/2000/svg"
   xmlns:svg="http://www.w3.org/2000/svg"><sodipodi:namedview
     id="namedview1"
     pagecolor="#505050"
     bordercolor="#eeeeee"
     borderopacity="1"
     inkscape:showpageshadow="0"
     inkscape:pageopacity="0"
     inkscape:pagecheckerboard="0"
     inkscape:deskcolor="#505050"
     inkscape:document-units="px"
     inkscape:zoom="1.5643378"
     inkscape:cx="160.7709"
     inkscape:cy="138.71684"
     inkscape:window-width="1920"
     inkscape:window-height="1017"
     inkscape:window-x="-8"
     inkscape:window-y="-8"
     inkscape:window-maximized="1"
     inkscape:current-layer="layer1" /><defs
     id="defs1" /><g
     inkscape:label="Layer 1"
     inkscape:groupmode="layer"
     id="layer1"><rect
       style="fill:#292929;fill-opacity:1;stroke-width:2.117;stroke-linecap:round;stroke-linejoin:round;paint-order:stroke fill markers"
       id="rect1"
       width="132.29166"
       height="52.91666"
       x="0"
       y="0" /><path
       style="fill:#cc3d3d;fill-opacity:1;stroke-width:0.999998"
       d="m 88.714943,45.084297 c -1.809635,-2.75247 2.912845,-2.101168 3.948234,-3.076686 -0.973487,-0.734711 -2.506198,-2.438636 -3.649117,-2.031674 -1.580304,0.643811 -2.574251,2.511541 -4.29294,2.631536 -2.160179,-0.489008 -4.310857,-1.001673 -6.510486,-1.2907 -1.025006,-0.08564 -1.009723,-1.930661 0.04393,-2.160234 0.997168,-0.600747 3.451235,0.362206 3.66478,-0.29341 -1.222006,-0.904912 -5.13812,0.3517 -3.62644,-1.989007 1.259615,-1.705732 3.409233,-0.624064 5.070489,-0.258231 2.222894,-1.039678 0.535561,-3.423485 0.05658,-5.024568 -0.771533,-2.998912 0.09094,-6.209955 2.02873,-8.585487 1.098949,-1.001954 2.227774,-3.853247 -0.357075,-3.062966 -2.429551,-0.09954 -5.225198,-0.01874 -7.126184,1.685001 -0.503144,0.279531 -1.783017,-0.981104 -2.563137,-0.588595 -1.143654,-1.745476 -1.274144,-5.085727 1.581126,-4.96724 2.248531,-1.147577 2.152575,-4.498595 4.589851,-5.489988 2.418733,-1.1236346 3.866219,-3.9127209 6.727774,-4.1549418 -0.756311,0.2788689 -4.225205,2.8150952 -1.713563,1.9879829 1.043015,-0.4355115 3.538799,-1.0908698 3.889787,-0.6605315 -1.081135,0.083601 -3.559683,2.5373074 -1.045357,1.5679746 1.496355,-0.2750955 3.05967,-0.1837309 4.510428,0.2768359 -1.387614,0.1358082 -3.508672,2.1771969 -0.930113,2.0422519 0.686828,0.213219 3.463447,1.219749 2.788066,1.415452 -2.851537,-0.130865 -2.436735,2.975744 0.116985,3.125418 1.409138,0.694495 -0.01796,-1.203322 1.637408,-0.884734 2.159906,0.266035 2.176381,-1.534355 1.209998,-2.94526 0.961187,-1.372758 3.955743,-0.02375 5.634763,-0.153772 4.69899,0.908541 9.73228,2.227607 13.14516,5.807409 1.26633,1.206387 4.00915,4.475431 0.40971,3.389018 -2.45474,-0.131929 -5.45024,1.721499 -4.99202,4.509841 0.58348,2.424552 -3.72631,-0.415606 -3.50097,2.554003 0.37595,1.460503 0.0112,2.360098 -1.47807,1.669146 -1.31945,-0.277846 -4.03655,1.186512 -1.35054,1.641317 1.00837,0.365062 2.48617,0.571386 0.93657,1.465899 -1.46381,1.546219 1.77468,2.40175 -0.0325,3.760529 -0.27825,1.659856 1.74686,2.681513 2.6929,3.711896 2.76386,0.407637 3.4822,-3.132667 3.22536,-5.2354 -0.12255,-3.521495 0.0257,-7.755137 3.14777,-10.053944 1.22559,-1.44011 5.31772,-0.952171 4.0825,-3.686546 1.48138,-1.373426 4.43955,0.289284 6.12351,1.147611 0.98281,1.994475 -1.9082,3.599968 -3.03853,5.03672 -2.15848,1.573299 -0.58182,-4.236315 -3.31906,-2.322704 -2.58456,1.731092 -3.47293,5.146411 -2.66737,8.063811 0.74969,3.333211 0.76475,7.234573 -1.74176,9.868941 -2.18086,2.765686 -5.92059,4.289517 -9.38231,3.335878 -2.37985,-0.41332 -4.59353,-1.426167 -6.873019,-2.142148 -1.321209,1.64334 -3.474417,1.091524 -5.364296,0.878416 -1.868681,-0.358542 -3.928585,0.06637 -5.707554,-0.514116 z m 8.068729,-22.00258 c 0.728841,-0.977256 0.538464,-3.051922 -0.619468,-1.139182 -0.20353,0.355022 -0.0018,1.64033 0.619468,1.139182 z m 0.561945,-3.520301 c 1.152344,-1.590433 -2.053662,-3.327327 -1.885473,-1.038307 0.372608,0.526132 1.18581,1.285433 1.885473,1.038307 z"
       id="path1" /><path
       style="fill:#b22c45;fill-opacity:1;stroke-width:2.117;stroke-linecap:round;stroke-linejoin:round;paint-order:stroke fill markers"
       d="M 66.825534,6.9663918 C 65.128859,10.73678 59.6921,11.845548 54.413556,6.1899643 57.052828,14.2963 42.882862,9.3793929 40.621332,9.2286248 34.96575,8.8515856 25.916817,9.9827016 23.654584,8.2860274 21.392351,6.5893524 18.753078,4.3271193 18.753078,4.3271193 24.712159,23.276232 27.7072,7.7863512 29.121646,20.162752 27.047933,27.137971 14.228612,24.096695 11.40082,26.65419 c -2.8277915,2.557496 -3.9589081,6.139363 -3.9589081,6.139363 0,0 8.6718941,-1.696674 14.8930361,0.377041 6.221141,2.073714 -0.188521,7.352257 -0.188521,7.352257 0,0 9.803012,-4.524466 14.893037,-2.262232 5.090025,2.262232 -0.565559,6.22114 -0.565559,6.22114 0,0 6.221142,2.450754 13.007841,-1.885195 6.786699,-4.335945 11.688207,-15.081555 15.270076,-11.688203 3.581867,3.39335 1.696673,7.352258 1.696673,7.352258 8.483375,-3.58187 6.425585,-16.589712 6.425585,-16.589712 0,0 -3.032234,-11.499685 -6.048546,-14.7045152 z"
       id="path2"
       sodipodi:nodetypes="ccssccscscscssccc" /><path
       style="fill:#c78a16;fill-opacity:1;stroke-width:2.117;stroke-linecap:round;stroke-linejoin:round;paint-order:stroke fill markers"
       d="m 69.658274,11.89082 c 0,6.144198 -9.426571,-2.7104948 -12.851716,3.870658 -5.439652,0.805881 -12.478549,-1.906082 -17.902714,-2.179759 0.02531,3.057541 5.856227,5.490938 2.352803,8.498299 -2.287625,1.871091 -5.890609,-0.402401 -7.8216,1.894579 -2.03442,3.868424 3.738328,2.191984 5.553455,3.706057 2.046064,2.531481 4.902196,1.980196 7.721843,2.899952 1.794959,1.598998 4.190433,4.761804 6.825599,2.548726 3.4063,-2.170776 5.226496,-6.814953 9.652231,-7.270044 4.173872,-4.814191 7.146165,9.354356 9.007471,-0.01647 2.358639,-3.901416 0.209466,-8.576017 -1.573644,-12.263733 -0.303497,-0.572647 -0.625631,-1.135364 -0.963728,-1.688267 z"
       id="path2-2"
       sodipodi:nodetypes="sccccccccccss" /></g></svg>
