<?xml version="1.0" encoding="UTF-8" standalone="no"?>
<!-- Created with Inkscape (http://www.inkscape.org/) -->

<svg
   width="500"
   height="200"
   viewBox="0 0 132.29165 52.91666"
   version="1.1"
   id="svg1"
   inkscape:version="1.3 (0e150ed6c4, 2023-07-21)"
   sodipodi:docname="say_sorry.svg"
   xml:space="preserve"
   xmlns:inkscape="http://www.inkscape.org/namespaces/inkscape"
   xmlns:sodipodi="http://sodipodi.sourceforge.net/DTD/sodipodi-0.dtd"
   xmlns="http://www.w3.org/2000/svg"
   xmlns:svg="http://www.w3.org/2000/svg"><sodipodi:namedview
     id="namedview1"
     pagecolor="#505050"
     bordercolor="#eeeeee"
     borderopacity="1"
     inkscape:showpageshadow="0"
     inkscape:pageopacity="0"
     inkscape:pagecheckerboard="0"
     inkscape:deskcolor="#505050"
     inkscape:document-units="px"
     inkscape:zoom="1.5643378"
     inkscape:cx="135.84023"
     inkscape:cy="34.519399"
     inkscape:window-width="1920"
     inkscape:window-height="1017"
     inkscape:window-x="-8"
     inkscape:window-y="-8"
     inkscape:window-maximized="1"
     inkscape:current-layer="layer1" /><defs
     id="defs1"><style
       id="style1">.cls-1{fill:#8d00af;}.cls-2{fill:#aa0dd1;}.cls-3{fill:#e52e44;}.cls-4{fill:#fa4654;}.cls-5{fill:#fb626e;}</style></defs><g
     inkscape:label="Layer 1"
     inkscape:groupmode="layer"
     id="layer1"><rect
       style="fill:#292929;fill-opacity:1;stroke-width:2.117;stroke-linecap:round;stroke-linejoin:round;paint-order:stroke fill markers"
       id="rect1"
       width="132.29166"
       height="52.91666"
       x="0"
       y="0" /><path
       style="fill:#cc3d3d;fill-opacity:1;stroke-width:0.999998"
       d="m 76.104182,47.595364 c -2.460365,-2.190314 2.26977,-2.783473 3.017396,-3.993729 -1.130473,-0.457719 -3.051967,-1.70689 -4.050612,-1.017985 -1.359826,1.030886 -1.836501,3.092227 -3.46557,3.652963 -2.213137,0.08675 -4.42322,0.14819 -6.622704,0.438317 -1.012245,0.182569 -1.47501,-1.60354 -0.516677,-2.097996 0.807706,-0.838363 3.427383,-0.543381 3.463966,-1.231927 -1.414576,-0.557799 -4.872017,1.66956 -4.017665,-0.982641 0.775218,-1.973623 3.131546,-1.485174 4.830881,-1.561771 1.878062,-1.57958 -0.368751,-3.445446 -1.245802,-4.868004 -1.521419,-2.69704 -1.519413,-6.021893 -0.262485,-8.818018 0.802179,-1.252242 1.154571,-4.298541 -1.137662,-2.86618 -2.372529,0.532666 -5.052004,1.334279 -6.447255,3.471978 -0.413651,0.400229 -1.97619,-0.486195 -2.628139,0.09485 -1.556448,-1.390001 -2.547012,-4.582663 0.241634,-5.207211 1.874899,-1.690437 0.914905,-4.902437 3.012542,-6.490862 2.045498,-1.711362 2.721794,-4.78005 5.423152,-5.754642 -0.658363,0.465114 -3.352634,3.812737 -1.140646,2.363747 0.894756,-0.690624 3.135879,-1.969608 3.586287,-1.644776 -1.022659,0.360571 -2.781686,3.372165 -0.603916,1.785106 1.374168,-0.653007 2.907862,-0.969372 4.42839,-0.899982 -1.305183,0.490322 -2.825617,3.011122 -0.369847,2.213395 0.71861,0.02819 3.661127,0.281781 3.059411,0.645617 -2.788243,0.611626 -1.583526,3.505021 0.921917,2.988644 1.540871,0.306119 -0.328791,-1.157671 1.352628,-1.27838 2.155164,-0.302055 1.705103,-2.045362 0.406479,-3.158073 0.57314,-1.574756 3.814808,-1.046762 5.402964,-1.606916 4.774024,-0.338605 9.977208,-0.367197 14.200318,2.207308 1.535417,0.83753 5.030863,3.28529 1.272892,3.167499 -2.405243,0.5079 -4.818971,3.073467 -3.654689,5.648202 1.191119,2.190922 -3.706905,0.562996 -2.720652,3.373095 0.741146,1.313435 0.621656,2.276781 -0.995699,1.994824 -1.346403,0.07312 -3.591916,2.190819 -0.879718,1.934936 1.068496,0.09164 2.549342,-0.09155 1.28406,1.173548 -1.013741,1.872395 2.335828,1.860591 0.941904,3.640803 0.160833,1.675315 2.381364,2.138022 3.561851,2.888443 2.775188,-0.321593 2.552753,-3.927184 1.760437,-5.891793 -1.029804,-3.369784 -1.982353,-7.497539 0.43836,-10.526067 0.811101,-1.708245 4.890087,-2.296054 2.989247,-4.617559 1.07543,-1.710037 4.36314,-0.869613 6.21188,-0.476373 1.46553,1.672145 -0.91144,3.97118 -1.6314,5.651527 -1.67773,2.078346 -1.65843,-3.94138 -3.80712,-1.384524 -2.048458,2.34104 -2.022608,5.869912 -0.48942,8.47941 1.58685,3.0256 2.61114,6.790129 0.87186,9.983465 -1.39074,3.235896 -4.608641,5.675717 -8.199226,5.650531 -2.405733,0.216714 -4.806128,-0.188678 -7.193255,-0.290287 -0.850862,1.929298 -3.073522,1.953576 -4.954161,2.236866 -1.897805,0.137325 -3.777544,1.080901 -5.646137,0.980626 z m 2.099107,-23.341201 c 0.451074,-1.132595 -0.269779,-3.087295 -0.893202,-0.940036 -0.104709,0.395603 0.42281,1.584903 0.893202,0.940036 z m -0.368324,-3.545792 c 0.701445,-1.834489 -2.844861,-2.682424 -2.089961,-0.514931 0.496085,0.411766 1.478099,0.934722 2.089961,0.514931 z"
       id="path1" /><g
       id="g1"
       transform="matrix(0.3422456,0,0,0.3422456,46.399704,13.679285)"
       style="stroke-width:2.92188"><path
         class="cls-3"
         d="m -81.376615,4.2297916 a 24.341664,24.341664 0 0 0 -3.720041,37.4729324 l 6.085416,6.085416 29.662434,29.673017 a 6.6807283,6.6807283 0 0 0 5.410728,1.928813 L -42.903557,60.28441 -54.201264,48.984057 -31.603205,26.388643 -44.615411,13.376436 -50.700827,7.2910204 A 24.341664,24.341664 0 0 0 -81.376615,4.2297916 Z"
         id="path2"
         style="stroke-width:0.773079" /><path
         class="cls-4"
         d="m -81.376615,4.2297916 a 24.341664,24.341664 0 0 0 3.058583,30.6916624 l 6.085416,6.085416 28.815767,28.813122 0.515938,-9.524999 L -54.198618,48.99464 -31.600559,26.399226 -44.615411,13.376436 -50.700827,7.2910204 A 24.341664,24.341664 0 0 0 -81.376615,4.2297916 Z"
         id="path3"
         style="stroke-width:0.773079" /><path
         class="cls-3"
         d="m 3.2488417,7.2910204 a 24.341664,24.341664 0 0 0 -34.4117037,0 l -6.085416,6.0854156 13.012207,13.012207 -22.59806,22.595414 11.297707,11.300353 -1.034521,19.10556 a 6.6569158,6.6569158 0 0 0 4.056062,-1.928813 L 3.2488417,41.702724 a 24.341664,24.341664 0 0 0 0,-34.4117036 z"
         id="path4"
         style="stroke-width:0.773079" /><path
         class="cls-4"
         d="m 3.2488417,7.2910204 a 24.341664,24.341664 0 0 0 -34.4117037,0 l -6.085416,6.0854156 13.012207,13.012207 -22.59806,22.595414 11.297707,11.300353 -0.529167,9.524998 0.859896,0.862542 a 6.6913117,6.6913117 0 0 0 9.469436,0 L 3.2488417,41.702724 a 24.341664,24.341664 0 0 0 0,-34.4117036 z"
         id="path5"
         style="stroke-width:0.773079" /><ellipse
         class="cls-5"
         cx="-13.058767"
         cy="1.8733779"
         rx="6.1727285"
         ry="10.204978"
         transform="rotate(-53.45)"
         id="ellipse5"
         style="stroke-width:0.773079" /><ellipse
         class="cls-5"
         cx="-0.48075998"
         cy="26.724846"
         rx="3.8999579"
         ry="6.4478951"
         transform="rotate(-8.4499999)"
         id="ellipse6"
         style="stroke-width:0.773079" /></g></g></svg>
