<?xml version="1.0" encoding="UTF-8" standalone="no"?>
<!-- Created with Inkscape (http://www.inkscape.org/) -->

<svg
   width="500"
   height="200"
   viewBox="0 0 132.29165 52.91666"
   version="1.1"
   id="svg1"
   inkscape:version="1.3 (0e150ed6c4, 2023-07-21)"
   sodipodi:docname="talk.svg"
   xml:space="preserve"
   xmlns:inkscape="http://www.inkscape.org/namespaces/inkscape"
   xmlns:sodipodi="http://sodipodi.sourceforge.net/DTD/sodipodi-0.dtd"
   xmlns="http://www.w3.org/2000/svg"
   xmlns:svg="http://www.w3.org/2000/svg"><sodipodi:namedview
     id="namedview1"
     pagecolor="#505050"
     bordercolor="#eeeeee"
     borderopacity="1"
     inkscape:showpageshadow="0"
     inkscape:pageopacity="0"
     inkscape:pagecheckerboard="0"
     inkscape:deskcolor="#505050"
     inkscape:document-units="px"
     inkscape:zoom="0.90185136"
     inkscape:cx="232.29992"
     inkscape:cy="146.36558"
     inkscape:window-width="1920"
     inkscape:window-height="1017"
     inkscape:window-x="-8"
     inkscape:window-y="-8"
     inkscape:window-maximized="1"
     inkscape:current-layer="layer1" /><defs
     id="defs1"><style
       id="style1">.cls-1{fill:#8d00af;}.cls-2{fill:#aa0dd1;}.cls-3{fill:#e52e44;}.cls-4{fill:#fa4654;}.cls-5{fill:#fb626e;}</style></defs><g
     inkscape:label="Layer 1"
     inkscape:groupmode="layer"
     id="layer1"><rect
       style="fill:#292929;fill-opacity:1;stroke-width:2.117;stroke-linecap:round;stroke-linejoin:round;paint-order:stroke fill markers"
       id="rect1"
       width="132.29166"
       height="52.91666"
       x="0"
       y="0" /><path
       style="fill:#cc3d3d;fill-opacity:1;stroke-width:0.999998"
       d="m 95.385501,47.595364 c -2.460365,-2.190314 2.26977,-2.783473 3.017396,-3.993729 -1.130473,-0.457719 -3.051967,-1.70689 -4.050612,-1.017985 -1.359826,1.030886 -1.836501,3.092227 -3.46557,3.652963 -2.213137,0.08675 -4.42322,0.14819 -6.622704,0.438317 -1.012245,0.182569 -1.47501,-1.60354 -0.516677,-2.097996 0.807706,-0.838363 3.427383,-0.543381 3.463966,-1.231927 -1.414576,-0.557799 -4.872017,1.66956 -4.017665,-0.982641 0.775218,-1.973623 3.131546,-1.485174 4.830881,-1.561771 1.878062,-1.57958 -0.368751,-3.445446 -1.245802,-4.868004 -1.521419,-2.69704 -1.519413,-6.021893 -0.262485,-8.818018 0.802179,-1.252242 1.154571,-4.298541 -1.137662,-2.86618 -2.372529,0.532666 -5.052004,1.334279 -6.447255,3.471978 -0.413651,0.400229 -1.97619,-0.486195 -2.628139,0.09485 -1.556448,-1.390001 -2.547012,-4.582663 0.241634,-5.207211 1.874899,-1.690437 0.914905,-4.902437 3.012542,-6.490862 2.045498,-1.711362 2.721794,-4.78005 5.423152,-5.754642 -0.658363,0.465114 -3.352634,3.812737 -1.140646,2.363747 0.894756,-0.690624 3.135879,-1.969608 3.586287,-1.644776 -1.022659,0.360571 -2.781686,3.372165 -0.603916,1.785106 1.374168,-0.653007 2.907862,-0.969372 4.42839,-0.899982 -1.305183,0.490322 -2.825617,3.011122 -0.369847,2.213395 0.71861,0.02819 3.661127,0.281781 3.059411,0.645617 -2.788243,0.611626 -1.583526,3.505021 0.921917,2.988644 1.540871,0.306119 -0.328791,-1.157671 1.352628,-1.27838 2.155164,-0.302055 1.705103,-2.045362 0.406479,-3.158073 0.57314,-1.574756 3.814806,-1.046762 5.402966,-1.606916 4.77402,-0.338605 9.97721,-0.367197 14.20032,2.207308 1.53541,0.83753 5.03086,3.28529 1.27289,3.167499 -2.40524,0.5079 -4.81897,3.073467 -3.65469,5.648202 1.19112,2.190922 -3.70691,0.562996 -2.72065,3.373095 0.74114,1.313435 0.62165,2.276781 -0.9957,1.994824 -1.3464,0.07312 -3.59192,2.190819 -0.87972,1.934936 1.0685,0.09164 2.54934,-0.09155 1.28406,1.173548 -1.01374,1.872395 2.33583,1.860591 0.9419,3.640803 0.16084,1.675315 2.38137,2.138022 3.56186,2.888443 2.77518,-0.321593 2.55275,-3.927184 1.76043,-5.891793 -1.0298,-3.369784 -1.98235,-7.497539 0.43836,-10.526067 0.8111,-1.708245 4.89009,-2.296054 2.98925,-4.617559 1.07543,-1.710037 4.36314,-0.869613 6.21188,-0.476373 1.46553,1.672145 -0.91144,3.97118 -1.6314,5.651527 -1.67773,2.078346 -1.65843,-3.94138 -3.80712,-1.384524 -2.04846,2.34104 -2.02261,5.869912 -0.48942,8.47941 1.58685,3.0256 2.61114,6.790129 0.87186,9.983465 -1.39074,3.235896 -4.60864,5.675717 -8.19923,5.650531 -2.40573,0.216714 -4.80612,-0.188678 -7.19325,-0.290287 -0.85086,1.929298 -3.07352,1.953576 -4.95416,2.236866 -1.897808,0.137325 -3.777547,1.080901 -5.64614,0.980626 z m 2.099107,-23.341201 c 0.451074,-1.132595 -0.269779,-3.087295 -0.893202,-0.940036 -0.104709,0.395603 0.42281,1.584903 0.893202,0.940036 z m -0.368324,-3.545792 c 0.701445,-1.834489 -2.844861,-2.682424 -2.089961,-0.514931 0.496085,0.411766 1.478099,0.934722 2.089961,0.514931 z"
       id="path1" /><circle
       style="fill:#9fa03e;stroke-width:2.117;stroke-linecap:round;stroke-linejoin:round;paint-order:stroke fill markers;fill-opacity:1"
       id="path2"
       cx="25.617317"
       cy="29.639105"
       r="4.1663361" /><rect
       style="fill:#9fa03e;stroke-width:2.117;stroke-linecap:round;stroke-linejoin:round;paint-order:stroke fill markers;fill-opacity:1"
       id="rect2"
       width="3.3820844"
       height="8.5777502"
       x="24.146845"
       y="32.432999" /><path
       style="fill:#9fa03e;stroke-width:2.117;stroke-linecap:round;stroke-linejoin:round;paint-order:stroke fill markers;fill-opacity:1"
       d="m 27.52893,34.687726 8.038576,-4.607476 -0.34311,2.989958 -7.695467,3.651668 h -3.382083 l -8.185625,-2.916436 1.323424,-2.221596 6.862201,3.201914 z"
       id="path3" /><path
       style="fill:#9fa03e;stroke-width:2.117;stroke-linecap:round;stroke-linejoin:round;paint-order:stroke fill markers;fill-opacity:1"
       d="m 24.146846,41.01075 -4.803541,6.225 3.284053,0.539172 3.210529,-6.764172 3.308561,7.107283 3.284053,-1.271478 -4.901572,-5.835805 z"
       id="path4" /><path
       style="fill:#bfc06f;fill-opacity:1;stroke-width:2.117;stroke-linecap:round;stroke-linejoin:round;paint-order:stroke fill markers"
       d="m 31.458994,23.425111 1.860478,-3.720956 h 6.088837 z"
       id="path5" /><rect
       style="fill:#bfc06f;fill-opacity:1;stroke-width:2.117;stroke-linecap:round;stroke-linejoin:round;paint-order:stroke fill markers"
       id="rect5"
       width="31.481575"
       height="13.192482"
       x="19.343306"
       y="6.5116744"
       rx="2.7501657"
       ry="2.7501657" /><path
       style="fill:#c06f6f;fill-opacity:1;stroke-width:2.117;stroke-linecap:round;stroke-linejoin:round;paint-order:stroke fill markers"
       d="M 74.001788,19.199778 72.14131,15.478821 h -6.088837 z"
       id="path5-7" /><rect
       style="fill:#c06f6f;fill-opacity:1;stroke-width:2.117;stroke-linecap:round;stroke-linejoin:round;paint-order:stroke fill markers"
       id="rect5-5"
       width="14.677301"
       height="10.232631"
       x="-76.435547"
       y="5.2461905"
       rx="2.563998"
       ry="2.563998"
       transform="scale(-1,1)" /><ellipse
       style="fill:#131313;fill-opacity:1;stroke-width:2.117;stroke-linecap:round;stroke-linejoin:round;paint-order:stroke fill markers"
       id="path6"
       cx="65.087311"
       cy="11.800149"
       rx="1.4456956"
       ry="1.4895056" /><ellipse
       style="fill:#131313;fill-opacity:1;stroke-width:2.117;stroke-linecap:round;stroke-linejoin:round;paint-order:stroke fill markers"
       id="path6-7"
       cx="69.096893"
       cy="11.800149"
       rx="1.4456956"
       ry="1.4895056" /><ellipse
       style="fill:#131313;fill-opacity:1;stroke-width:2.117;stroke-linecap:round;stroke-linejoin:round;paint-order:stroke fill markers"
       id="path6-3"
       cx="73.106476"
       cy="11.800149"
       rx="1.4456956"
       ry="1.4895056" /><path
       style="fill:#131313;fill-opacity:1;stroke-width:2.11701;stroke-linecap:round;stroke-linejoin:round;paint-order:stroke fill markers"
       d="m 22.093375,14.576244 2.05347,-5.5521892 3.382084,6.7421112 3.018015,-5.8085883 2.074497,6.7421103 3.682227,-7.2607338 3.104641,7.7528218 3.689331,-6.4044 2.230083,6.4044 1.815184,-6.819299"
       id="path7" /></g></svg>
